<mxfile host="65bd71144e">
    <diagram name="Page-1" id="IAo5kVR6yswNED7drVxS">
        <mxGraphModel dx="959" dy="468" grid="1" gridSize="10" guides="1" tooltips="1" connect="1" arrows="1" fold="1" page="1" pageScale="1" pageWidth="2339" pageHeight="3300" math="0" shadow="0">
            <root>
                <mxCell id="0"/>
                <mxCell id="1" parent="0"/>
                <mxCell id="iXmbOwUKX4hCfMHyHjpi-10" style="edgeStyle=orthogonalEdgeStyle;rounded=0;orthogonalLoop=1;jettySize=auto;html=1;" parent="1" edge="1">
                    <mxGeometry relative="1" as="geometry">
                        <mxPoint x="400" y="140" as="sourcePoint"/>
                        <mxPoint x="400" y="170" as="targetPoint"/>
                    </mxGeometry>
                </mxCell>
                <mxCell id="iXmbOwUKX4hCfMHyHjpi-1" value="Message" style="ellipse;whiteSpace=wrap;html=1;fillColor=#cdeb8b;strokeColor=#36393d;" parent="1" vertex="1">
                    <mxGeometry x="340" y="60" width="120" height="80" as="geometry"/>
                </mxCell>
                <mxCell id="iXmbOwUKX4hCfMHyHjpi-2" value="Signature 1&amp;nbsp;" style="rounded=1;whiteSpace=wrap;html=1;fillColor=#cce5ff;strokeColor=#36393d;" parent="1" vertex="1">
                    <mxGeometry x="340" y="190" width="70" height="30" as="geometry"/>
                </mxCell>
                <mxCell id="iXmbOwUKX4hCfMHyHjpi-26" style="edgeStyle=orthogonalEdgeStyle;rounded=0;orthogonalLoop=1;jettySize=auto;html=1;exitX=1;exitY=0.5;exitDx=0;exitDy=0;entryX=0;entryY=1;entryDx=0;entryDy=0;fillColor=#cdeb8b;strokeColor=#36393d;" parent="1" edge="1" target="12">
                    <mxGeometry relative="1" as="geometry">
                        <mxPoint x="550" y="290" as="targetPoint"/>
                        <Array as="points">
                            <mxPoint x="460" y="290"/>
                        </Array>
                        <mxPoint x="460" y="265" as="sourcePoint"/>
                    </mxGeometry>
                </mxCell>
                <mxCell id="iXmbOwUKX4hCfMHyHjpi-9" style="edgeStyle=orthogonalEdgeStyle;rounded=0;orthogonalLoop=1;jettySize=auto;html=1;exitX=1;exitY=0.5;exitDx=0;exitDy=0;fillColor=#cdeb8b;strokeColor=#36393d;" parent="1" source="iXmbOwUKX4hCfMHyHjpi-7" edge="1">
                    <mxGeometry relative="1" as="geometry">
                        <mxPoint x="330" y="249.8571428571429" as="targetPoint"/>
                    </mxGeometry>
                </mxCell>
                <mxCell id="iXmbOwUKX4hCfMHyHjpi-7" value="&lt;div&gt;Table generated by the macro&lt;/div&gt;&lt;div&gt;CAN_REGISTER_MODULES({signature, topics, seconds to timeout})&lt;/div&gt;" style="rounded=0;whiteSpace=wrap;html=1;fillColor=#ffcc99;strokeColor=#36393d;" parent="1" vertex="1">
                    <mxGeometry x="20" y="210" width="230" height="80" as="geometry"/>
                </mxCell>
                <mxCell id="iXmbOwUKX4hCfMHyHjpi-15" value="Topic bar" style="rounded=1;whiteSpace=wrap;html=1;fillColor=#ffcccc;strokeColor=#36393d;" parent="1" vertex="1">
                    <mxGeometry x="570" y="290" width="60" height="30" as="geometry"/>
                </mxCell>
                <mxCell id="iXmbOwUKX4hCfMHyHjpi-29" style="edgeStyle=orthogonalEdgeStyle;rounded=0;orthogonalLoop=1;jettySize=auto;html=1;exitX=0.5;exitY=0;exitDx=0;exitDy=0;fillColor=#cdeb8b;strokeColor=#36393d;" parent="1" source="iXmbOwUKX4hCfMHyHjpi-28" edge="1">
                    <mxGeometry relative="1" as="geometry">
                        <mxPoint x="640" y="330" as="targetPoint"/>
                    </mxGeometry>
                </mxCell>
                <mxCell id="iXmbOwUKX4hCfMHyHjpi-28" value="&lt;div&gt;Table generated by the macro&lt;/div&gt;CAN_REGISTER_TOPICS(NAME, ...) " style="rounded=0;whiteSpace=wrap;html=1;fillColor=#ffcc99;strokeColor=#36393d;" parent="1" vertex="1">
                    <mxGeometry x="525" y="434" width="230" height="80" as="geometry"/>
                </mxCell>
                <mxCell id="iXmbOwUKX4hCfMHyHjpi-49" value="Callback foo" style="rounded=1;whiteSpace=wrap;html=1;" parent="1" vertex="1">
                    <mxGeometry x="630" y="260" width="120" height="30" as="geometry"/>
                </mxCell>
                <mxCell id="14" style="edgeStyle=none;html=1;exitX=1;exitY=0;exitDx=0;exitDy=0;fillColor=#cdeb8b;strokeColor=#36393d;" edge="1" parent="1" source="iXmbOwUKX4hCfMHyHjpi-50">
                    <mxGeometry relative="1" as="geometry">
                        <mxPoint x="840" y="289.8571428571429" as="targetPoint"/>
                    </mxGeometry>
                </mxCell>
                <mxCell id="iXmbOwUKX4hCfMHyHjpi-50" value="Callback bar" style="rounded=1;whiteSpace=wrap;html=1;" parent="1" vertex="1">
                    <mxGeometry x="630" y="290" width="120" height="30" as="geometry"/>
                </mxCell>
                <mxCell id="iXmbOwUKX4hCfMHyHjpi-55" value="data[signature byte]" style="text;html=1;align=center;verticalAlign=middle;resizable=0;points=[];autosize=1;strokeColor=none;fillColor=none;" parent="1" vertex="1">
                    <mxGeometry x="310" y="160" width="130" height="30" as="geometry"/>
                </mxCell>
                <mxCell id="iXmbOwUKX4hCfMHyHjpi-56" value="Message ID" style="text;html=1;align=center;verticalAlign=middle;resizable=0;points=[];autosize=1;strokeColor=none;fillColor=none;" parent="1" vertex="1">
                    <mxGeometry x="555" y="230" width="90" height="30" as="geometry"/>
                </mxCell>
                <mxCell id="5" value="Signature 2" style="rounded=1;whiteSpace=wrap;html=1;fillColor=#cce5ff;strokeColor=#36393d;" vertex="1" parent="1">
                    <mxGeometry x="340" y="250" width="70" height="30" as="geometry"/>
                </mxCell>
                <mxCell id="24" style="edgeStyle=elbowEdgeStyle;html=1;exitX=1;exitY=0.5;exitDx=0;exitDy=0;entryX=0;entryY=1;entryDx=0;entryDy=0;fillColor=#cdeb8b;strokeColor=#36393d;" edge="1" parent="1" source="6" target="21">
                    <mxGeometry relative="1" as="geometry"/>
                </mxCell>
                <mxCell id="6" value="Topic table 1" style="rounded=1;whiteSpace=wrap;html=1;fillColor=#cce5ff;strokeColor=#36393d;" vertex="1" parent="1">
                    <mxGeometry x="410" y="190" width="50" height="60" as="geometry"/>
                </mxCell>
                <mxCell id="9" value="Topic table 2" style="rounded=1;whiteSpace=wrap;html=1;fillColor=#cce5ff;strokeColor=#36393d;" vertex="1" parent="1">
                    <mxGeometry x="410" y="250" width="50" height="60" as="geometry"/>
                </mxCell>
                <mxCell id="12" value="Topic foo" style="rounded=1;whiteSpace=wrap;html=1;fillColor=#ffcccc;strokeColor=#36393d;" vertex="1" parent="1">
                    <mxGeometry x="570" y="260" width="60" height="30" as="geometry"/>
                </mxCell>
                <mxCell id="15" value="Run Callback" style="rounded=1;whiteSpace=wrap;html=1;" vertex="1" parent="1">
                    <mxGeometry x="840" y="275" width="120" height="30" as="geometry"/>
                </mxCell>
                <mxCell id="16" value="Topic bar" style="rounded=1;whiteSpace=wrap;html=1;fillColor=#ffcccc;strokeColor=#36393d;" vertex="1" parent="1">
                    <mxGeometry x="570" y="200" width="60" height="30" as="geometry"/>
                </mxCell>
                <mxCell id="17" value="Callback foo" style="rounded=1;whiteSpace=wrap;html=1;" vertex="1" parent="1">
                    <mxGeometry x="630" y="170" width="120" height="30" as="geometry"/>
                </mxCell>
                <mxCell id="18" style="edgeStyle=none;html=1;exitX=1;exitY=0;exitDx=0;exitDy=0;fillColor=#cdeb8b;strokeColor=#36393d;" edge="1" parent="1" source="19">
                    <mxGeometry relative="1" as="geometry">
                        <mxPoint x="839.9999999999998" y="199.8571428571429" as="targetPoint"/>
                    </mxGeometry>
                </mxCell>
                <mxCell id="19" value="Callback bar" style="rounded=1;whiteSpace=wrap;html=1;" vertex="1" parent="1">
                    <mxGeometry x="630" y="200" width="120" height="30" as="geometry"/>
                </mxCell>
                <mxCell id="20" value="Message ID" style="text;html=1;align=center;verticalAlign=middle;resizable=0;points=[];autosize=1;strokeColor=none;fillColor=none;" vertex="1" parent="1">
                    <mxGeometry x="555" y="140" width="90" height="30" as="geometry"/>
                </mxCell>
                <mxCell id="21" value="Topic foo" style="rounded=1;whiteSpace=wrap;html=1;fillColor=#ffcccc;strokeColor=#36393d;" vertex="1" parent="1">
                    <mxGeometry x="570" y="170" width="60" height="30" as="geometry"/>
                </mxCell>
                <mxCell id="22" value="Run Callback" style="rounded=1;whiteSpace=wrap;html=1;" vertex="1" parent="1">
                    <mxGeometry x="840" y="185" width="120" height="30" as="geometry"/>
                </mxCell>
            </root>
        </mxGraphModel>
    </diagram>
</mxfile>